<?xml version="1.0" standalone="no"?>
<!DOCTYPE svg PUBLIC "-//W3C//DTD SVG 1.1//EN" "http://www.w3.org/Graphics/SVG/1.1/DTD/svg11.dtd" >
<svg xmlns="http://www.w3.org/2000/svg">
<metadata>
This is a custom SVG webfont generated by Font Squirrel.
Copyright   : Copyright c 2008 2009 2010 Accademia di Belle Arti di Urbino Licensed under the SIL Open Font License Version 11
Designer    : Paolo Mazzetti Luciano Perondi Raffaele Flato Elena Papassissa Emilio Macchia Michela Povoleri Tobias Seemiller Riccardo Lorusso Sabrina Campagna Elisa Ansuini Mariangela Di Pinto Antonio Cavedoni Marco Comastri Luna Castroni Stefano Faoro Daniele Capo Jan Henrik Arnold
</metadata>
<defs>
<font id="webfontnEnPCk0j" horiz-adv-x="1024" >
<font-face units-per-em="2048" ascent="1536" descent="-512" />
<missing-glyph horiz-adv-x="500" />
<glyph unicode=" " />
<glyph unicode="!" d="M399 -12v280h275v-280h-275zM436 385l-22 956h243l-24 -956h-197z" />
<glyph unicode="&#x22;" d="M252 948v445h180v-445h-180zM590 948v445h180v-445h-180z" />
<glyph unicode="#" d="M610 514l39 352h-233l-39 -352h233zM977 362h-213l-41 -362h-170l43 362h-234l-43 -362h-167l43 362h-195v152h209l39 352h-201v150h215l37 325h168l-37 -325h236l34 325h168l-34 -325h190v-150h-207l-39 -352h199v-152z" />
<glyph unicode="$" d="M924 358q0 -334 -344 -372v-174h-205v174q-133 12 -297 61l43 180q367 -121 510 -30q78 49 80 150.5t-48.5 140t-242 94t-268 146.5t-76.5 246.5t100 242t215 94.5v174h207v-168q123 -4 297 -68l-47 -180q-203 68 -332 68h-8q-219 2 -219 -170q0 -143 241 -207 q104 -29 170 -55q63 -25 119 -70q105 -82 105 -277z" />
<glyph unicode="%" d="M686 1362h193l-547 -1362h-193zM0 1075q0 123 71.5 194.5t180 71.5t180.5 -71.5t72 -194.5t-72 -194.5t-180.5 -71.5t-180 71.5t-71.5 194.5zM252 1188q-100 0 -100 -113.5t100 -113.5t100 113.5t-100 113.5zM518 266q0 123 72 194.5t180.5 71.5t180 -71.5t71.5 -194.5 t-71.5 -194.5t-180 -71.5t-180.5 71.5t-72 194.5zM668 262q0 -57 27.5 -87t73.5 -30t73.5 30t27.5 87q0 115 -100 115q-47 0 -74.5 -29t-27.5 -86z" />
<glyph unicode="&#x26;" d="M8 403q0 301 279 426q-74 125 -84 168q-8 43 -8 78q0 129 86 208t233.5 79t230.5 -78q86 -80 86 -203t-63 -197.5t-225 -146.5l211 -303q41 100 77 361l175 -25q-37 -301 -134 -487l148 -193l-141 -110q-59 74 -115 153q-141 -154 -342 -153.5t-307.5 106.5t-106.5 317z M647 1069q0 127 -131 127t-131 -121q0 -61 14.5 -103t59.5 -104q106 43 147 89t41 112zM195 403q0 -135 53 -196.5t172 -61.5q154 0 246 125l-299 424q-172 -86 -172 -291z" />
<glyph unicode="'" d="M408 948v445h180v-445h-180z" />
<glyph unicode="(" d="M437 111.5q-81 224.5 -81 539t82 540.5t242 460l154 -99q-137 -203 -207 -404.5t-70 -496.5t68.5 -496.5t203.5 -400.5l-149 -102q-162 235 -243 459.5z" />
<glyph unicode=")" d="M428 651q0 295 -69.5 497t-206.5 404l153 99q160 -233 242 -459q82 -225 82 -540.5t-81 -540t-243 -459.5l-149 102q135 199 203.5 400.5t68.5 496.5z" />
<glyph unicode="*" d="M143 991v180l250 -6l-90 230l189 63l63 -241l197 153l116 -156l-219 -137l217 -133l-116 -160l-199 156l-68 -240l-184 68l90 225z" />
<glyph unicode="+" d="M944 481h-330v-336h-204v336h-328v197h328v334h204v-334h330v-197z" />
<glyph unicode="," d="M354 0v297h291v-236q0 -186 -168 -354l-125 64q88 121 97 229h-95z" />
<glyph unicode="-" d="M225 446v199h576v-199h-576z" />
<glyph unicode="." d="M358 0v297h297v-297h-297z" />
<glyph unicode="/" d="M4 -23l848 1491l168 -98l-848 -1493z" />
<glyph unicode="0" d="M189.5 1161.5q107.5 157.5 321.5 157.5t321.5 -157.5t107.5 -509t-108.5 -512t-321.5 -160.5t-320.5 160.5t-107.5 512t107.5 509zM510 166q113 0 163 102.5t50 384t-50 379.5t-163 98t-160 -97t-47 -335.5t23.5 -346t66.5 -146.5t117 -39z" />
<glyph unicode="1" d="M971 0h-830v188h338l-2 895l-317 -143l-74 172l420 188h164v-1112h301v-188z" />
<glyph unicode="2" d="M909 940q0 -115 -50 -211t-126 -164q-74 -68 -151 -125q-199 -150 -236 -241h612v-199h-849v182q41 102 118 191q76 90 154 151l151 119q164 135 162 297q0 90 -53 140t-134 50t-147.5 -33.5t-169.5 -105.5l-104 154q94 70 207 121t199 51q180 0 298.5 -95.5 t118.5 -281.5z" />
<glyph unicode="3" d="M285 555l-27 180l154 23q266 41 266 225q0 84 -54.5 112.5t-148.5 28.5t-299 -90l-70 176q82 39 197 73t186 34q180 0 294 -76t114 -248q0 -133 -57 -192q-33 -35 -59 -51l-83 -52v-8q252 -61 252 -332q0 -379 -465 -378q-186 0 -405 88l65 182q201 -78 340 -78 q242 0 242 178q0 231 -225 232z" />
<glyph unicode="4" d="M971 408v-191h-152v-237h-203v237h-540v182l303 899h207l-291 -890h321v389h203v-389h152z" />
<glyph unicode="5" d="M855 748.5q103 -121.5 103 -322.5t-131 -325t-329.5 -124t-427.5 95l65 182q231 -82 347 -82t185.5 67.5t69.5 184.5t-55 182.5t-171 65.5t-226 -86l-140 41l21 671h760v-188h-574l-10 -291q90 51 197 51q213 0 316 -121.5z" />
<glyph unicode="6" d="M845 724q124 -110 124 -312.5t-123 -318.5t-323.5 -116t-327.5 126t-127 352q0 297 160.5 502.5t506.5 375.5l84 -192q-205 -100 -303 -174t-178 -193q74 59 228.5 59.5t278.5 -109.5zM690 225.5q72 61.5 72 189.5t-70.5 179t-165 51t-171 -59.5t-76.5 -157.5 q0 -147 71.5 -205.5t169.5 -58.5t170 61.5z" />
<glyph unicode="7" d="M63 999l54 299h809v-188q-12 -53 -86 -184l-148 -267q-76 -135 -141.5 -321t-69.5 -338h-209q0 158 58 338q59 180 129 311l139 264q70 133 80 197h-406l-32 -119z" />
<glyph unicode="8" d="M80 360q0 102 61.5 186.5t161.5 117.5q-201 86 -201 288q0 162 107.5 263.5t309.5 101.5t305.5 -100.5t103.5 -264.5q0 -106 -51.5 -181t-143.5 -103q221 -72 221 -308q0 -176 -116.5 -278t-327.5 -102t-320.5 106t-109.5 274zM352.5 515q-57.5 -56 -57.5 -150.5 t58.5 -148.5t165 -54t163.5 53t57 149.5t-57 151.5t-164.5 55t-165 -56zM313 952q0 -86 50.5 -142t152.5 -56t152.5 54t50.5 144q0 186 -203 187q-102 0 -152.5 -50.5t-50.5 -136.5z" />
<glyph unicode="9" d="M209 580.5q-115 99.5 -115 302t117 317.5t324.5 115t324.5 -122t117 -353q0 -295 -209 -588q-61 -84 -104 -133l-93 -99q-49 -49 -51 -55l-235 39q8 10 87 94t115 129q125 147 207 299q-90 -45 -207 -45q-163 0 -278 99.5zM372.5 1072q-67.5 -56 -67.5 -181t69.5 -173 t164 -48t164 56t69.5 165q0 238 -235 237q-97 0 -164.5 -56z" />
<glyph unicode=":" d="M358 0v297h297v-297h-297zM358 594v297h297v-297h-297z" />
<glyph unicode=";" d="M354 592v297h291v-297h-291zM354 0v297h291v-236q0 -186 -168 -354l-125 64q88 121 97 229h-95z" />
<glyph unicode="&#x3c;" d="M954 954l-680 -362l668 -346l-100 -178l-752 389v260l770 409z" />
<glyph unicode="=" d="M72 444h878v-192h-878v192zM72 788h878v-192h-878v192z" />
<glyph unicode="&#x3e;" d="M770 592l-680 362l94 172l770 -409v-260l-751 -389l-101 178z" />
<glyph unicode="?" d="M399 -12v252h236v-252h-236zM915 1059q0 -49 -6 -88t-45 -107.5t-110 -138.5l-45 -43q-29 -27 -39 -37l-27 -29q-43 -45 -47 -70.5t-4 -51t14 -111.5l-190 -12q-27 53 -27 139t34 146.5t124 145.5t117.5 125t31.5 61.5t4 84t-50 100t-106.5 37.5t-130 -23.5t-122.5 -64.5 l-84 166q76 59 169 87t163 28q160 0 268 -83t108 -261z" />
<glyph unicode="@" d="M61 438q0 297 147.5 465t414.5 168q90 0 172 -16.5t118 -32.5l37 -16v-926q-119 -53 -290 -53t-240.5 96t-69.5 305t78 299t234 90q57 0 108 -10v108q-59 12 -147 13q-176 0 -283 -126t-107 -384q0 -512 398 -512q137 0 278 47l37 -137q-150 -51 -317 -52 q-279 0 -423.5 162t-144.5 512zM583.5 252q26.5 -53 85 -53t101.5 14v426q-43 6 -102.5 6t-85 -45t-25.5 -170t26.5 -178z" />
<glyph unicode="A" d="M0 0l326 1341h383l315 -1341h-225l-64 256h-454l-60 -256h-221zM690 446l-151 705h-45l-170 -705h366z" />
<glyph unicode="B" d="M92 0v1341h412q446 0 446 -348q0 -113 -57 -194.5t-156 -102.5q115 -16 179.5 -99t66.5 -216q0 -381 -498 -381h-393zM708.5 243.5q57.5 59.5 57.5 159t-62.5 144.5t-197.5 45h-201v-408h211q135 0 192.5 59.5zM741 977q0 180 -223 180h-213v-381h197q239 0 239 201z" />
<glyph unicode="C" d="M913 219l37 -178q-209 -61 -351 -61t-229 32.5t-153 110.5q-135 158 -135 561q0 678 496 678q172 0 346 -59l-45 -175q-160 43 -298.5 43t-210 -106.5t-71.5 -386t58.5 -395t217 -115.5t338.5 51z" />
<glyph unicode="D" d="M78 0v1341h319q162 0 261.5 -26.5t169 -100t98 -203.5t28.5 -369t-58 -384t-175 -201.5t-328 -56.5h-315zM719.5 419q17.5 93 17.5 254t-14 253t-60.5 146t-114 69.5t-192.5 15.5h-65v-973h61q119 0 187.5 17.5t115.5 71t64.5 146.5z" />
<glyph unicode="E" d="M123 0v1341h784v-192h-571v-373h516v-184h-516v-399h577v-193h-790z" />
<glyph unicode="F" d="M131 0v1341h787v-192h-574v-455h490v-184h-490v-510h-213z" />
<glyph unicode="G" d="M165 143.5q-120 161.5 -120 524t124 528.5t388 166q209 0 377 -57l-37 -183q-143 49 -340 49q-162 0 -228.5 -116.5t-66.5 -376.5t70.5 -380t212.5 -120q100 0 211 27v317h-191v189h396v-660q-195 -70 -416 -69q-260 0 -380 161.5z" />
<glyph unicode="H" d="M66 0v1341h215v-577h464v577h216v-1341h-216v571h-464v-571h-215z" />
<glyph unicode="I" d="M147 0v190h265v961h-265v190h723v-190h-245v-961h245v-190h-723z" />
<glyph unicode="J" d="M678 1149v-709q0 -279 -49 -371t-228 -92q-115 0 -311 56l37 174q96 -29 192 -41q19 -2 36 -3q66 0 85 41q25 50 25 240v705h-309v192h649v-192h-127z" />
<glyph unicode="K" d="M737 1341h232q-207 -410 -369 -651q59 -92 154 -264l229 -426h-231q-207 399 -318 575l-127 -12v-563h-207v1341h207v-583l111 16q135 209 272 475z" />
<glyph unicode="L" d="M899 193v-193h-760v1341h213v-1148h547z" />
<glyph unicode="M" d="M43 0v1341h203l258 -700h16l258 700h203v-1341h-193l7 907h-9l-174 -452h-200l-174 452h-9l7 -907h-193z" />
<glyph unicode="N" d="M768 0v178l-506 832h-6v-1010h-193v1341h193l504 -839h8v839h193v-1341h-193z" />
<glyph unicode="O" d="M157.5 152q-106.5 172 -106.5 527t109.5 519t356.5 164t351.5 -162t104.5 -525.5t-104.5 -529t-354.5 -165.5t-356.5 172zM704.5 277.5q51.5 105.5 51.5 400.5t-50.5 393t-188.5 98t-193.5 -106.5t-55.5 -379.5t49.5 -392t192.5 -119t194.5 105.5z" />
<glyph unicode="P" d="M508 430h-203v-430h-213v1341h422q233 0 341 -107.5t108 -336.5q0 -467 -455 -467zM481 1153h-176v-528h176q137 0 200.5 64.5t63.5 207.5t-64.5 199.5t-199.5 56.5z" />
<glyph unicode="Q" d="M870 -150l-143 173q-90 -43 -215 -43q-246 0 -353.5 168.5t-107.5 531t103.5 522.5t356.5 160t357.5 -160t104.5 -524.5t-107 -532.5l113 -153zM316.5 300q52.5 -134 195.5 -134q43 0 70 8l-76 76l100 170l107 -107q47 117 47 375v17q0 269 -64 372q-25 41 -73 70 t-111 29t-110.5 -28t-73 -70t-41.5 -109q-24 -100 -24 -303v-17q1 -215 53.5 -349z" />
<glyph unicode="R" d="M508 489q-111 -6 -123 -6h-96v-483h-213v1341h422q223 0 337.5 -99t114.5 -331q0 -266 -229 -374q141 -268 237 -537h-229q-92 247 -221 489zM457 1153h-168v-473h170q274 0 274 231q0 129 -65.5 185.5t-210.5 56.5z" />
<glyph unicode="S" d="M86 983q0 379 455 379q160 0 364 -72l-47 -186q-209 66 -329 66h-5q-115 0 -168 -40q-53 -41 -53 -143q0 -70 59.5 -118t200.5 -85q215 -57 295 -147t80 -268q0 -387 -463 -387q-154 0 -387 65l43 195q0 -2 64 -19q199 -51 308 -51t163.5 55.5t54.5 139.5t-46 129 t-169 79q-221 61 -320.5 151.5t-99.5 256.5z" />
<glyph unicode="T" d="M57 1149v192h906v-192h-347v-1149h-213v1149h-346z" />
<glyph unicode="U" d="M53 451v890h215v-866q0 -158 51 -229q49 -72 188.5 -72t193 69.5t53.5 231.5v866h215v-890q0 -240 -103.5 -354.5t-361.5 -114.5t-354.5 116.5t-96.5 352.5z" />
<glyph unicode="V" d="M27 1341h239l252 -1126l246 1126h237l-327 -1341h-316z" />
<glyph unicode="W" d="M117 0l-117 1341h205l90 -1153h12l127 596h182l121 -596h15l71 1153h199l-92 -1341h-312l-94 528h-6l-98 -528h-303z" />
<glyph unicode="X" d="M487 512l-217 -512h-252l330 688l-313 653h256l207 -491h8l205 491h250l-316 -653l348 -688h-260l-239 512h-7z" />
<glyph unicode="Y" d="M618 580v-580h-212v580l-406 761h238l266 -563h16l266 563h238z" />
<glyph unicode="Z" d="M131 1149v192h764v-167l-502 -981h533v-193h-801v145l514 1004h-508z" />
<glyph unicode="[" d="M340 -319v1943h438v-192h-223v-1559h223v-192h-438z" />
<glyph unicode="\" d="M4 1370l168 98l848 -1491l-168 -100z" />
<glyph unicode="]" d="M246 -319v192h223v1559h-223v192h438v-1943h-438z" />
<glyph unicode="_" d="M0 -360v186h1024v-186h-1024z" />
<glyph unicode="a" d="M442 176q57 0 127 26.5t111 59.5v144q-123 10 -201 10q-170 0 -170 -127q0 -113 133 -113zM410 -23q-328 0 -328 312q0 166 105.5 232.5t291.5 66.5q88 0 201 -10q0 123 -35 168t-121 45t-200.5 -20.5t-176.5 -41.5l-38 195q215 66 419.5 65.5t283.5 -90.5t79 -305v-416 l22 -180l-211 -21l-20 95q-172 -95 -272 -95z" />
<glyph unicode="b" d="M117 0v1366h211v-465q127 88 237 88q213 0 307.5 -124t94.5 -386t-116 -382t-306 -120q-88 0 -219 64l-4 -41h-205zM539 791q-100 0 -211 -93v-460q123 -61 221 -61.5t144 74.5t46 230q1 310 -200 310z" />
<glyph unicode="c" d="M883 952l-31 -196q-135 37 -262 37t-184.5 -71t-57.5 -226.5t49 -238.5t186.5 -83t268.5 37l31 -197q-143 -41 -305 -41q-457 0 -457 510t454 510q171 0 308 -41z" />
<glyph unicode="d" d="M934 1366v-1196l20 -170l-206 -20l-19 94q-133 -96 -260 -97q-190 0 -286.5 112t-96.5 378t116.5 394t303.5 128q109 0 219 -47v424h209zM483 174q109 0 242 111v456q-106 51 -209 52q-203 0 -203 -326q0 -293 170 -293z" />
<glyph unicode="e" d="M211 861q111 128 307.5 128t304 -115.5t111.5 -338.5l-8 -152h-598q18 -221 221 -221q141 0 299 51l43 -178q-66 -23 -170.5 -40.5t-171.5 -17.5q-449 0 -449 508q0 248 111 376zM526 799q-96 0 -144 -56.5t-54 -187.5h379q-1 244 -181 244z" />
<glyph unicode="f" d="M334 788h-201v185h201q0 225 73.5 322.5t251.5 97.5q121 0 267 -35l-33 -187q-127 29 -213 29t-113.5 -51t-27.5 -176h350v-185h-350v-604h354v-184h-768v184h209v604z" />
<glyph unicode="g" d="M934 236l6 -283q0 -176 -119 -270.5t-321.5 -94.5t-393.5 68l52 188q184 -61 305 -61t193.5 42t72.5 126q0 16 -3 64t-3 75q-131 -92 -254 -92q-188 0 -286.5 116.5t-98.5 371.5t111.5 377t306.5 122q43 0 109.5 -20.5t111.5 -44.5l4 59h207v-743zM483 193q104 0 240 102 v422q-117 74 -215 74q-197 0 -197 -299t172 -299z" />
<glyph unicode="h" d="M326 717v-717h-211v1366h211v-451q166 74 260 74q176 0 248.5 -102.5t72.5 -298.5v-588h-211v592q0 86 -33.5 142.5t-89.5 56.5q-100 0 -247 -74z" />
<glyph unicode="i" d="M211 780v189h438v-781h228v-188h-682v188h243v592h-227zM406 1241q0 53 36 90q37 37 90.5 37t90 -36t36.5 -91t-36.5 -94t-88 -39t-90 40t-38.5 93z" />
<glyph unicode="j" d="M721 973v-993q0 -184 -90 -279q-70 -74 -244 -107q-141 -27 -179 -26h-5l-25 196q209 31 270.5 65t61.5 151v808h-240v185h451zM514 1168q-37 40 -37 92.5t37 90.5t92.5 38t90 -37t34.5 -91.5t-34.5 -93.5t-90 -39t-92.5 40z" />
<glyph unicode="k" d="M748 973h227q-229 -373 -299 -455q39 -55 96 -147l221 -371h-243l-97 172q-96 172 -141 244l-143 -17v-399h-211v1366h211v-784l139 14q53 70 145.5 222.5t94.5 154.5z" />
<glyph unicode="l" d="M203 1178l-2 186l436 2v-1182h229v-184h-671v184h231v996z" />
<glyph unicode="m" d="M248 973l6 -55q78 72 152 71q104 0 157 -78q106 78 189 78q123 0 175 -71.5t52 -266.5v-651h-209v561q0 188 -33 217q-16 16 -47 16.5t-78 -40.5q10 -47 11 -193v-227h-207v227q0 186 -23 217q-12 16 -41.5 16.5t-89.5 -44.5v-750h-215v973h201z" />
<glyph unicode="n" d="M319 973l5 -60q166 76 260 76q166 0 244.5 -97t78.5 -304v-588h-211v582q0 98 -34.5 153.5t-108.5 55.5t-227 -72v-719h-211v973h204z" />
<glyph unicode="o" d="M512 989q217 0 321.5 -124t104.5 -382t-104.5 -384t-321.5 -126t-321.5 126t-104.5 384t104.5 382t321.5 124zM313 483q0 -164 43 -237.5t156 -73.5t156 73.5t43 237.5t-42 236t-157 72t-157 -72t-42 -236z" />
<glyph unicode="p" d="M117 -393v1190l-13 176l205 14l13 -90q137 92 243 92q207 0 304.5 -122t97.5 -380t-119 -384t-338 -126q-74 0 -182 43v-413h-211zM557 793q-94 0 -229 -91v-487q98 -43 178 -43q233 0 233 311q0 309 -180 310h-2z" />
<glyph unicode="q" d="M936 985v-1374h-211v448q-49 -35 -123 -57t-123 -22q-203 0 -298 119.5t-95 372.5t109.5 385t302.5 132q133 0 233 -59l8 55h197zM357 243.5q44 -71.5 148.5 -71.5t219.5 96v469q-94 55 -223 56q-188 0 -189 -326q0 -152 44 -223.5z" />
<glyph unicode="r" d="M166 784v189h369l4 -99q66 37 171 71t195 44v-205q-80 -8 -190.5 -42.5t-175.5 -71.5v-486h299v-184h-672v188h158v596h-158z" />
<glyph unicode="s" d="M129 45l45 186q195 -61 309.5 -61t155.5 23q41 20 41 73t-37 76t-139 47q-203 49 -283 109.5t-80 197.5q0 293 377 293q162 0 375 -53l-39 -195q-203 57 -313.5 57.5t-148.5 -19t-38 -66.5t38 -68.5t195.5 -64.5t231.5 -99.5t74 -191.5q0 -309 -381 -309q-178 -1 -383 65 z" />
<glyph unicode="t" d="M287 784h-156v189h156v233l211 21v-254h364v-189h-364v-411q0 -113 22 -158q25 -45 107 -45t217 33l35 -185q-156 -41 -267 -41q-197 0 -261 88.5t-64 307.5v411z" />
<glyph unicode="u" d="M696 0l-4 72q-164 -92 -266 -92q-166 0 -241.5 95t-75.5 304v594h210v-582q0 -211 138 -211q109 0 233 84v709h211v-973h-205z" />
<glyph unicode="v" d="M68 973h225l207 -787h37l198 787h223l-260 -973h-364z" />
<glyph unicode="w" d="M821 973h205l-106 -973h-347l-53 444h-18l-39 -444h-354l-113 973h213l80 -785h22l47 465h308l55 -465h24z" />
<glyph unicode="x" d="M61 975h265l186 -328l184 328h258l-297 -481l318 -496h-262l-201 338l-199 -338h-262l322 496z" />
<glyph unicode="y" d="M59 973h230l235 -791h17l198 791h224l-271 -948q-43 -152 -80 -233t-102.5 -132t-145 -65.5t-225.5 -16.5v191q125 0 184.5 26.5t82.5 83.5l12 31z" />
<glyph unicode="z" d="M166 784v189h694l12 -170l-436 -615h438v-188h-716l-17 147l447 637h-422z" />
<glyph unicode="{" d="M213 584v170l184 80q0 172 -10 349t-10 238q0 203 201 203h221v-164h-137q-59 0 -81 -19.5t-22 -81t10.5 -253t10.5 -361.5l-177 -69v-17l177 -67q0 -152 -10.5 -360.5t-10.5 -278.5t22.5 -89.5t80.5 -19.5h137v-163h-221q-201 0 -201 202q0 82 10 271.5t10 341.5z" />
<glyph unicode="|" d="M618 1522v-2022h-210v2022h210z" />
<glyph unicode="}" d="M213 -319v163h137q57 0 80 19.5t23 89.5t-10.5 278.5t-10.5 360.5l176 67v17l-176 69q0 170 10 363q10 190 10.5 251.5t-21 81t-81.5 19.5h-137v164h221q201 0 201 -203q0 -61 -10.5 -238t-10.5 -349l185 -80v-170l-185 -88q0 -152 10.5 -341.5t10.5 -271.5 q0 -203 -201 -202h-221z" />
<glyph unicode="~" d="M825 680l136 -102q-137 -182 -271 -183q-80 2 -193.5 69.5t-140.5 67.5q-76 0 -163 -108l-121 106q143 184 282 185q82 0 187 -66q106 -66 143 -65.5t67.5 23t73.5 73.5z" />
<glyph unicode="&#xa0;" />
<glyph unicode="&#xa1;" d="M651 1028v-280h-274v280h274zM614 631l23 -957h-244l25 957h196z" />
<glyph unicode="&#xa2;" d="M121 485q0 225 84 345t258 147v147h209v-145q106 -8 180 -27l25 -6l-48 -190q-131 39 -259 39t-181 -69t-53 -234.5t57.5 -243.5t184.5 -78t274 37l31 -182q-94 -29 -211 -39v-133h-209v135q-342 53 -342 497z" />
<glyph unicode="&#xa3;" d="M94 600v184h111q-47 104 -47 183q0 182 106.5 289.5t315.5 107.5q125 0 274 -39l-33 -180q-121 33 -243 33q-217 0 -218 -211q0 -119 37 -183h400v-184h-328q37 -72 37 -144.5t-45 -134t-90 -94.5l-45 -32l6 -9q92 31 129 31t116.5 -28.5t129.5 -28.5q92 0 157 43l21 14 l67 -166q-96 -74 -245 -74q-55 0 -143.5 27t-155.5 27q-117 2 -228 -39l-37 -15l-63 183l59 41q37 25 96.5 98.5t59.5 134.5q0 111 -33 166h-168z" />
<glyph unicode="&#xa4;" d="M315 1102q180 98 385 0l144 160l141 -113l-143 -166q86 -102 87 -249.5t-83 -250.5l147 -172l-143 -114l-145 163q-119 -55 -199 -54t-191 54l-147 -165l-148 116l148 172q-84 104 -84 252t86 248l-141 166l141 113zM266 729.5q0 -106.5 68.5 -170t164 -65.5t179.5 69 q66 68 64.5 172.5t-70 170t-166.5 67.5t-169 -67.5t-71 -176z" />
<glyph unicode="&#xa5;" d="M102 780h234l-338 561h244l272 -491l277 491h231l-336 -561h234v-184h-304v-109h304v-184h-304v-303h-208v303h-306v184h306v109h-306v184z" />
<glyph unicode="&#xa6;" d="M616 401v-901h-210v901h210zM616 1522v-901h-210v901h210z" />
<glyph unicode="&#xa7;" d="M141 688q0 82 78 164q-90 74 -90 227q0 295 401 295q131 0 310 -59l-45 -176q-152 53 -263.5 54t-151.5 -23.5t-40 -80t36 -88t150 -65.5q205 -57 275.5 -118.5t70.5 -172t-59 -174.5q72 -57 72 -193.5t-102.5 -217t-279.5 -80.5t-356 53l43 192q207 -55 294 -55 t125 20.5t47.5 43t9.5 55.5q0 41 -115 69q-33 8 -51 15q-215 61 -287 125.5t-72 189.5zM377 778q-35 -35 -35 -80t39 -71.5t168 -63.5l96 -26q27 35 27 100q0 61 -185 108q-75 19 -110 33z" />
<glyph unicode="&#xa9;" d="M143 136.5q-123 148.5 -123 419.5t127 419.5t367 148.5q489 0 490 -571q0 -281 -131.5 -423t-369 -142t-360.5 148.5zM145 553q0 -233 94.5 -337.5t274.5 -104.5t270 100t90 343t-86 345t-272 102q-371 1 -371 -448zM330.5 324.5q-62.5 64.5 -62.5 231.5t56.5 238.5 t193.5 71.5q86 0 184 -32l-32 -129q-74 25 -138.5 24.5t-88 -36.5t-23.5 -133t24.5 -130t92.5 -33q41 0 110 19l23 6l32 -129q-84 -33 -167 -33q-142 0 -204.5 64.5z" />
<glyph unicode="&#xaa;" d="M246 934q0 104 62.5 148t185.5 44q57 0 100 -6q-2 53 -19 74q-14 20 -59 20t-118.5 -14t-112.5 -29l-29 144q150 45 272.5 45t174 -55.5t51.5 -194.5v-242l14 -120l-158 -17l-10 45q-74 -43 -147 -43q-207 0 -207 201zM410 934q0 -55 61 -55t123 49v57q-57 4 -100 4 q-84 0 -84 -55z" />
<glyph unicode="&#xab;" d="M61 547l471 336v-234l-299 -184l299 -189v-233l-471 340v164zM496 547l471 336v-234l-299 -184l299 -189v-233l-471 340v164z" />
<glyph unicode="&#xac;" d="M74 977h884v-504h-213v291h-671v213z" />
<glyph unicode="&#xad;" d="M225 446v199h576v-199h-576z" />
<glyph unicode="&#xae;" d="M138 531.5q-138 138.5 -138 373t138 370.5t376 136t374 -131t136 -373.5t-137 -378t-374 -135.5t-375 138.5zM123 903q0 -393 388 -393t388 393t-388 393t-388 -393zM319 637v557h158q125 0 189.5 -42t64.5 -154.5t-94 -153.5q39 -59 84 -174l12 -33h-135 q-39 102 -88 184h-66v-184h-125zM572.5 942q27.5 14 27.5 64.5t-26.5 60.5t-102.5 10h-27v-149h21q80 0 107.5 14z" />
<glyph unicode="&#xb0;" d="M221 1141q0 121 84 199.5t209 78.5t206 -78.5t81 -200.5t-82 -201t-208 -79t-208 80t-82 201zM606 1041.5q39 37.5 39 100t-36 99.5t-98 37t-98 -37t-36 -99.5t36 -100t95 -37.5t98 37.5z" />
<glyph unicode="&#xb1;" d="M942 559h-328v-260h-204v260h-328v191h328v278h204v-278h328v-191zM942 39h-860v188h860v-188z" />
<glyph unicode="&#xb2;" d="M909 940q0 -115 -50 -211t-126 -164q-74 -68 -151 -125q-199 -150 -236 -241h612v-199h-849v182q41 102 118 191q76 90 154 151l151 119q164 135 162 297q0 90 -53 140t-134 50t-147.5 -33.5t-169.5 -105.5l-104 154q94 70 207 121t199 51q180 0 298.5 -95.5 t118.5 -281.5z" />
<glyph unicode="&#xb3;" d="M285 555l-27 180l154 23q266 41 266 225q0 84 -54.5 112.5t-148.5 28.5t-299 -90l-70 176q82 39 197 73t186 34q180 0 294 -76t114 -248q0 -133 -57 -192q-33 -35 -59 -51l-83 -52v-8q252 -61 252 -332q0 -379 -465 -378q-186 0 -405 88l65 182q201 -78 340 -78 q242 0 242 178q0 231 -225 232z" />
<glyph unicode="&#xb5;" d="M115 -100v1073h211v-596q0 -195 120 -195q143 0 252 80v711h211v-973h-204l-5 59q-164 -80 -239.5 -79.5t-120.5 20.5t-59 43l18 -111v-43q0 -178 -72 -297l-153 70q27 66 34 105t7 133z" />
<glyph unicode="&#x3bc;" d="M115 -100v1073h211v-596q0 -195 120 -195q143 0 252 80v711h211v-973h-204l-5 59q-164 -80 -239.5 -79.5t-120.5 20.5t-59 43l18 -111v-43q0 -178 -72 -297l-153 70q27 66 34 105t7 133z" />
<glyph unicode="&#xb6;" d="M932 0h-109v1298h109v-1298zM604 0h-108v406q-231 16 -321.5 117.5t-90.5 322.5t90 336.5t322 115.5h108v-1298zM496 506v690q-182 -2 -244 -82q-61 -82 -61.5 -266t63.5 -255t242 -87z" />
<glyph unicode="&#xb7;" d="M373 614.5q0 73.5 35.5 117.5t99 44t98.5 -43t35 -119q0 -154 -135 -153q-61 0 -97 40t-36 113.5z" />
<glyph unicode="&#xb9;" d="M971 0h-830v188h338l-2 895l-317 -143l-74 172l420 188h164v-1112h301v-188z" />
<glyph unicode="&#xba;" d="M292 808q-73 83 -73 237.5t73 235.5t206 81t204.5 -81t71.5 -235.5t-71.5 -237.5t-204.5 -83t-206 83zM614 1043.5q0 175.5 -117.5 175.5t-117.5 -175.5t117.5 -175.5t117.5 175.5z" />
<glyph unicode="&#xbb;" d="M496 883l471 -336v-164l-471 -340v233l299 189l-299 184v234zM61 883l471 -336v-164l-471 -340v233l299 189l-299 184v234z" />
<glyph unicode="&#xbc;" horiz-adv-x="3072" d="M3019 408v-191h-152v-237h-203v237h-540v182l303 899h207l-291 -890h321v389h203v-389h152zM1710 1362h193l-547 -1362h-193zM971 0h-830v188h338l-2 895l-317 -143l-74 172l420 188h164v-1112h301v-188z" />
<glyph unicode="&#xbd;" horiz-adv-x="3072" d="M2957 940q0 -115 -50 -211t-126 -164q-74 -68 -151 -125q-199 -150 -236 -241h612v-199h-849v182q41 102 118 191q76 90 154 151l151 119q164 135 162 297q0 90 -53 140t-134 50t-147.5 -33.5t-169.5 -105.5l-104 154q94 70 207 121t199 51q180 0 298.5 -95.5 t118.5 -281.5zM1710 1362h193l-547 -1362h-193zM971 0h-830v188h338l-2 895l-317 -143l-74 172l420 188h164v-1112h301v-188z" />
<glyph unicode="&#xbe;" horiz-adv-x="3072" d="M3019 408v-191h-152v-237h-203v237h-540v182l303 899h207l-291 -890h321v389h203v-389h152zM1710 1362h193l-547 -1362h-193zM285 555l-27 180l154 23q266 41 266 225q0 84 -54.5 112.5t-148.5 28.5t-299 -90l-70 176q82 39 197 73t186 34q180 0 294 -76t114 -248 q0 -133 -57 -192q-33 -35 -59 -51l-83 -52v-8q252 -61 252 -332q0 -379 -465 -378q-186 0 -405 88l65 182q201 -78 340 -78q242 0 242 178q0 231 -225 232z" />
<glyph unicode="&#xbf;" d="M674 1001v-251h-236v251h236zM158 -70q0 49 6 88t45 108t110 138l46 43q29 27 38 37l27 29q43 45 47 70.5t4 51t-14 111.5l190 12q27 -53 27 -139t-34 -146.5t-124 -145.5t-117.5 -124.5t-31.5 -61t-4 -84t50 -100.5t106.5 -38t130 23.5t122.5 64.5l84 -166 q-76 -59 -169 -87t-162 -28q-160 0 -268.5 83t-108.5 261z" />
<glyph unicode="&#xc0;" d="M319 1845l416 -180l-65 -160l-424 172zM0 0l326 1341h383l315 -1341h-225l-64 256h-454l-60 -256h-221zM690 446l-151 705h-45l-170 -705h366z" />
<glyph unicode="&#xc1;" d="M319 1663l420 180l70 -168l-422 -172zM0 0l326 1341h383l315 -1341h-225l-64 256h-454l-60 -256h-221zM690 446l-151 705h-45l-170 -705h366z" />
<glyph unicode="&#xc2;" d="M178 1520l258 286h164l258 -286h-201l-139 163l-139 -163h-201zM0 0l326 1341h383l315 -1341h-225l-64 256h-454l-60 -256h-221zM690 446l-151 705h-45l-170 -705h366z" />
<glyph unicode="&#xc3;" d="M764 1782l84 -115q-100 -109 -197 -108q-72 0 -149 43q-76 45 -121 45t-113 -64l-92 113q121 117 217 116q68 0 148 -43q82 -43 123 -42.5t100 55.5zM0 0l326 1341h383l315 -1341h-225l-64 256h-454l-60 -256h-221zM690 446l-151 705h-45l-170 -705h366z" />
<glyph unicode="&#xc4;" d="M199 1663q0 47 33.5 82t80.5 35t81 -35t34 -82t-33 -82t-82 -35t-81.5 35t-32.5 82zM594 1663q0 47 32.5 82t82 35t82 -35t32.5 -82t-32.5 -82t-82 -35t-82 35t-32.5 82zM0 0l326 1341h383l315 -1341h-225l-64 256h-454l-60 -256h-221zM690 446l-151 705h-45l-170 -705 h366z" />
<glyph unicode="&#xc5;" d="M688.5 1841.5q67.5 -61.5 67.5 -165t-67.5 -165t-177.5 -61.5t-177.5 61.5t-67.5 165t67.5 165t177.5 61.5t177.5 -61.5zM408 1675q0 -92 102 -92t102 92t-102 92t-102 -92zM0 0l326 1341h383l315 -1341h-225l-64 256h-454l-60 -256h-221zM690 446l-151 705h-45 l-170 -705h366z" />
<glyph unicode="&#xc6;" d="M0 0l315 1341h664v-192h-248v-373h193v-184h-193v-399h254v-193h-467v256h-237l-60 -256h-221zM518 446v705h-35l-159 -705h194z" />
<glyph unicode="&#xc7;" d="M699.5 -142.5q64.5 -56.5 64.5 -162t-61.5 -163.5t-167.5 -58q-43 0 -125 14l16 129q72 -6 94 -6q92 0 92 86q0 45 -21.5 63.5t-70.5 18.5l-86 -6l-18 125q66 16 119 16q100 0 164.5 -56.5zM913 219l37 -178q-209 -61 -351 -61t-229 32.5t-153 110.5q-135 158 -135 561 q0 678 496 678q172 0 346 -59l-45 -175q-160 43 -298.5 43t-210 -106.5t-71.5 -386t58.5 -395t217 -115.5t338.5 51z" />
<glyph unicode="&#xc8;" d="M338 1845l416 -180l-66 -160l-424 172zM123 0v1341h784v-192h-571v-373h516v-184h-516v-399h577v-193h-790z" />
<glyph unicode="&#xc9;" d="M287 1663l420 180l69 -168l-422 -172zM123 0v1341h784v-192h-571v-373h516v-184h-516v-399h577v-193h-790z" />
<glyph unicode="&#xca;" d="M178 1540l258 266h164l258 -266h-201l-139 143l-139 -143h-201zM123 0v1341h784v-192h-571v-373h516v-184h-516v-399h577v-193h-790z" />
<glyph unicode="&#xcb;" d="M199 1663q0 47 33.5 82t80.5 35t81 -35t34 -82t-33 -82t-82 -35t-81.5 35t-32.5 82zM594 1663q0 47 32.5 82t82 35t82 -35t32.5 -82t-32.5 -82t-82 -35t-82 35t-32.5 82zM123 0v1341h784v-192h-571v-373h516v-184h-516v-399h577v-193h-790z" />
<glyph unicode="&#xcc;" d="M326 1845l415 -180l-65 -160l-424 172zM147 0v190h265v961h-265v190h723v-190h-245v-961h245v-190h-723z" />
<glyph unicode="&#xcd;" d="M272 1663l420 180l70 -168l-422 -172zM147 0v190h265v961h-265v190h723v-190h-245v-961h245v-190h-723z" />
<glyph unicode="&#xce;" d="M178 1520l258 286h164l258 -286h-201l-139 163l-139 -163h-201zM147 0v190h265v961h-265v190h723v-190h-245v-961h245v-190h-723z" />
<glyph unicode="&#xcf;" d="M199 1663q0 47 33.5 82t80.5 35t81 -35t34 -82t-33 -82t-82 -35t-81.5 35t-32.5 82zM594 1663q0 47 32.5 82t82 35t82 -35t32.5 -82t-32.5 -82t-82 -35t-82 35t-32.5 82zM147 0v190h265v961h-265v190h723v-190h-245v-961h245v-190h-723z" />
<glyph unicode="&#xd0;" d="M102 0v553h-86v199h86v589h295q162 0 261.5 -26.5t169 -100t98 -203.5t28.5 -369t-58 -384t-175 -201.5t-328 -56.5h-291zM719.5 419q17.5 93 17.5 254t-14 253t-60.5 146t-114 69.5t-192.5 15.5h-41v-405h187v-199h-187v-369h37q119 0 187.5 17.5t115.5 71t64.5 146.5z " />
<glyph unicode="&#xd1;" d="M764 1782l84 -115q-100 -109 -197 -108q-72 0 -149 43q-76 45 -121 45t-113 -64l-92 113q121 117 217 116q68 0 148 -43q82 -43 123 -42.5t100 55.5zM768 0v178l-506 832h-6v-1010h-193v1341h193l504 -839h8v839h193v-1341h-193z" />
<glyph unicode="&#xd2;" d="M344 1845l416 -180l-66 -160l-424 172zM157.5 152q-106.5 172 -106.5 527t109.5 519t356.5 164t351.5 -162t104.5 -525.5t-104.5 -529t-354.5 -165.5t-356.5 172zM704.5 277.5q51.5 105.5 51.5 400.5t-50.5 393t-188.5 98t-193.5 -106.5t-55.5 -379.5t49.5 -392 t192.5 -119t194.5 105.5z" />
<glyph unicode="&#xd3;" d="M301 1663l420 180l70 -168l-422 -172zM157.5 152q-106.5 172 -106.5 527t109.5 519t356.5 164t351.5 -162t104.5 -525.5t-104.5 -529t-354.5 -165.5t-356.5 172zM704.5 277.5q51.5 105.5 51.5 400.5t-50.5 393t-188.5 98t-193.5 -106.5t-55.5 -379.5t49.5 -392 t192.5 -119t194.5 105.5z" />
<glyph unicode="&#xd4;" d="M178 1540l258 266h164l258 -266h-201l-139 143l-139 -143h-201zM157.5 152q-106.5 172 -106.5 527t109.5 519t356.5 164t351.5 -162t104.5 -525.5t-104.5 -529t-354.5 -165.5t-356.5 172zM704.5 277.5q51.5 105.5 51.5 400.5t-50.5 393t-188.5 98t-193.5 -106.5 t-55.5 -379.5t49.5 -392t192.5 -119t194.5 105.5z" />
<glyph unicode="&#xd5;" d="M764 1782l84 -115q-100 -109 -197 -108q-72 0 -149.5 44t-121.5 44t-112 -64l-92 113q121 117 217 116q68 0 148 -43t122 -42.5t101 55.5zM157.5 152q-106.5 172 -106.5 527t109.5 519t356.5 164t351.5 -162t104.5 -525.5t-104.5 -529t-354.5 -165.5t-356.5 172z M704.5 277.5q51.5 105.5 51.5 400.5t-50.5 393t-188.5 98t-193.5 -106.5t-55.5 -379.5t49.5 -392t192.5 -119t194.5 105.5z" />
<glyph unicode="&#xd6;" d="M199 1663q0 47 33.5 82t80.5 35t81 -35t34 -82t-33 -82t-82 -35t-81.5 35t-32.5 82zM594 1663q0 47 32.5 82t82 35t82 -35t32.5 -82t-32.5 -82t-82 -35t-82 35t-32.5 82zM157.5 152q-106.5 172 -106.5 527t109.5 519t356.5 164t351.5 -162t104.5 -525.5t-104.5 -529 t-354.5 -165.5t-356.5 172zM704.5 277.5q51.5 105.5 51.5 400.5t-50.5 393t-188.5 98t-193.5 -106.5t-55.5 -379.5t49.5 -392t192.5 -119t194.5 105.5z" />
<glyph unicode="&#xd7;" d="M786 184l-280 281l-279 -281l-145 142l280 282l-282 281l149 141l277 -278l280 276l146 -139l-281 -281l279 -280z" />
<glyph unicode="&#xd8;" d="M147 170q-96 166 -96 515t109.5 513t351.5 164q172 0 274 -76l43 76l125 -70l-69 -121q88 -162 88 -511t-104.5 -514.5t-356.5 -165.5q-166 0 -266 75l-43 -75l-125 67zM323.5 1062.5q-55.5 -106.5 -55.5 -330.5t17 -322l397 696q-49 63 -176 63t-182.5 -106.5zM756 684 q0 143 -13 242l-393 -688q53 -66 162 -66q141 0 192.5 105.5t51.5 406.5z" />
<glyph unicode="&#xd9;" d="M322 1845l415 -180l-65 -160l-424 172zM53 451v890h215v-866q0 -158 51 -229q49 -72 188.5 -72t193 69.5t53.5 231.5v866h215v-890q0 -240 -103.5 -354.5t-361.5 -114.5t-354.5 116.5t-96.5 352.5z" />
<glyph unicode="&#xda;" d="M309 1663l420 180l70 -168l-422 -172zM53 451v890h215v-866q0 -158 51 -229q49 -72 188.5 -72t193 69.5t53.5 231.5v866h215v-890q0 -240 -103.5 -354.5t-361.5 -114.5t-354.5 116.5t-96.5 352.5z" />
<glyph unicode="&#xdb;" d="M178 1540l258 266h164l258 -266h-201l-139 143l-139 -143h-201zM53 451v890h215v-866q0 -158 51 -229q49 -72 188.5 -72t193 69.5t53.5 231.5v866h215v-890q0 -240 -103.5 -354.5t-361.5 -114.5t-354.5 116.5t-96.5 352.5z" />
<glyph unicode="&#xdc;" d="M199 1663q0 47 33.5 82t80.5 35t81 -35t34 -82t-33 -82t-82 -35t-81.5 35t-32.5 82zM594 1663q0 47 32.5 82t82 35t82 -35t32.5 -82t-32.5 -82t-82 -35t-82 35t-32.5 82zM53 451v890h215v-866q0 -158 51 -229q49 -72 188.5 -72t193 69.5t53.5 231.5v866h215v-890 q0 -240 -103.5 -354.5t-361.5 -114.5t-354.5 116.5t-96.5 352.5z" />
<glyph unicode="&#xdd;" d="M303 1595l371 207l88 -178l-377 -178zM618 580v-580h-212v580l-406 761h238l266 -563h16l266 563h238z" />
<glyph unicode="&#xde;" d="M293 236v-236h-203v1341h203v-215h166q117 0 208 -49t137 -128t66.5 -173t-3 -189t-70.5 -174t-138.5 -128t-203.5 -49h-162zM418 942h-125v-522h121q90 0 151.5 54t75.5 130t1 153t-73.5 131t-150.5 54z" />
<glyph unicode="&#xdf;" d="M53 0v961q0 188 113 294.5t323 106.5q410 0 410 -303v-244q-176 -10 -270 -31q-63 -14 -63.5 -67t22 -77t102.5 -56q195 -78 248 -134.5t53 -191.5t-80 -206.5t-258 -71.5t-307 40l47 187q106 -39 213 -39t137.5 23.5t30.5 80.5q0 29 -30.5 48.5t-114.5 52.5 q-168 66 -222.5 134t-54.5 200q0 242 277 268l63 6v53q0 137 -203 137q-117 0 -171 -49t-54 -168v-954h-211z" />
<glyph unicode="&#xe0;" d="M442 176q57 0 127 26.5t111 59.5v144q-123 10 -201 10q-170 0 -170 -127q0 -113 133 -113zM410 -23q-328 0 -328 312q0 166 105.5 232.5t291.5 66.5q88 0 201 -10q0 123 -35 168t-121 45t-200.5 -20.5t-176.5 -41.5l-38 195q215 66 419.5 65.5t283.5 -90.5t79 -305v-416 l22 -180l-211 -21l-20 95q-172 -95 -272 -95zM371 1505l370 -207l-82 -149l-376 178z" />
<glyph unicode="&#xe1;" d="M442 176q57 0 127 26.5t111 59.5v144q-123 10 -201 10q-170 0 -170 -127q0 -113 133 -113zM410 -23q-328 0 -328 312q0 166 105.5 232.5t291.5 66.5q88 0 201 -10q0 123 -35 168t-121 45t-200.5 -20.5t-176.5 -41.5l-38 195q215 66 419.5 65.5t283.5 -90.5t79 -305v-416 l22 -180l-211 -21l-20 95q-172 -95 -272 -95zM256 1298l371 207l88 -178l-377 -178z" />
<glyph unicode="&#xe2;" d="M442 176q57 0 127 26.5t111 59.5v144q-123 10 -201 10q-170 0 -170 -127q0 -113 133 -113zM410 -23q-328 0 -328 312q0 166 105.5 232.5t291.5 66.5q88 0 201 -10q0 123 -35 168t-121 45t-200.5 -20.5t-176.5 -41.5l-38 195q215 66 419.5 65.5t283.5 -90.5t79 -305v-416 l22 -180l-211 -21l-20 95q-172 -95 -272 -95zM608 1526l221 -322h-208l-109 176l-109 -176h-208l221 322h192z" />
<glyph unicode="&#xe3;" d="M442 176q57 0 127 26.5t111 59.5v144q-123 10 -201 10q-170 0 -170 -127q0 -113 133 -113zM410 -23q-328 0 -328 312q0 166 105.5 232.5t291.5 66.5q88 0 201 -10q0 123 -35 168t-121 45t-200.5 -20.5t-176.5 -41.5l-38 195q215 66 419.5 65.5t283.5 -90.5t79 -305v-416 l22 -180l-211 -21l-20 95q-172 -95 -272 -95zM737 1444l84 -115q-100 -109 -196 -108q-72 0 -150 44t-123 44t-110 -64l-92 113q121 117 217 117q68 0 147.5 -43t120.5 -43t102 55z" />
<glyph unicode="&#xe4;" d="M442 176q57 0 127 26.5t111 59.5v144q-123 10 -201 10q-170 0 -170 -127q0 -113 133 -113zM410 -23q-328 0 -328 312q0 166 105.5 232.5t291.5 66.5q88 0 201 -10q0 123 -35 168t-121 45t-200.5 -20.5t-176.5 -41.5l-38 195q215 66 419.5 65.5t283.5 -90.5t79 -305v-416 l22 -180l-211 -21l-20 95q-172 -95 -272 -95zM199 1325q0 47 33.5 82t80.5 35t81 -35t34 -82t-33 -82t-82 -35t-81.5 35t-32.5 82zM594 1325q0 47 32.5 82t82 35t82 -35t32.5 -82t-32.5 -82t-82 -35t-82 35t-32.5 82z" />
<glyph unicode="&#xe5;" d="M442 176q57 0 127 26.5t111 59.5v144q-123 10 -201 10q-170 0 -170 -127q0 -113 133 -113zM410 -23q-328 0 -328 312q0 166 105.5 232.5t291.5 66.5q88 0 201 -10q0 123 -35 168t-121 45t-200.5 -20.5t-176.5 -41.5l-38 195q215 66 418.5 65.5t283.5 -90.5t80 -305v-416 l22 -180l-211 -21l-20 95q-172 -95 -272 -95zM688.5 1452q67.5 -61 67.5 -164.5t-67.5 -165t-177.5 -61.5t-177.5 61.5t-67.5 165t67.5 164.5t177.5 61t177.5 -61zM408 1286q0 -92 102 -92t102 92t-102 92t-102 -92z" />
<glyph unicode="&#xe6;" d="M415 4.5q-48 -24.5 -147.5 -24.5t-164 78.5t-64.5 213t77 221.5t203 87h99q0 156 -16.5 201.5t-73.5 45.5q-86 0 -207 -55l-51 129q147 72 243.5 72t142.5 -19.5t74 -83.5q63 113 201.5 113t200 -103.5t61.5 -328.5l-6 -139h-375q2 -139 34 -211t114 -74q51 0 149 31 l33 10l43 -137q-133 -51 -219 -51t-135 21.5t-109 90.5q-59 -63 -107 -87.5zM422 209v203h-103q-57 0 -90.5 -36t-33.5 -102q0 -150 92 -149q47 0 80.5 21.5t44.5 41.5zM806.5 775q-20.5 54 -78.5 54t-88 -53t-32 -198h219q0 143 -20.5 197z" />
<glyph unicode="&#xe7;" d="M668 618v168q-47 8 -93 9q-127 0 -177 -74t-50 -232.5t52.5 -236.5t183.5 -78t268 37l31 -197q-143 -41 -308 -41q-455 0 -454 512q0 264 103.5 386t344.5 122q156 0 299 -39v-336h-200zM709.5 -142.5q64.5 -56.5 64.5 -162t-61.5 -163.5t-167.5 -58q-43 0 -125 14 l16 129q72 -6 94 -6q92 0 93 86q0 45 -21.5 63.5t-71.5 18.5l-86 -6l-18 125q66 16 119 16q100 0 164.5 -56.5z" />
<glyph unicode="&#xe8;" d="M211 861q111 128 307.5 128t304 -115.5t111.5 -338.5l-8 -152h-598q18 -221 221 -221q141 0 299 51l43 -178q-66 -23 -170.5 -40.5t-171.5 -17.5q-449 0 -449 508q0 248 111 376zM526 799q-96 0 -144 -56.5t-54 -187.5h379q-1 244 -181 244zM371 1505l370 -207l-82 -149 l-376 178z" />
<glyph unicode="&#xe9;" d="M211 861q111 128 307.5 128t304 -115.5t111.5 -338.5l-8 -152h-598q18 -221 221 -221q141 0 299 51l43 -178q-66 -23 -170.5 -40.5t-171.5 -17.5q-449 0 -449 508q0 248 111 376zM526 799q-96 0 -144 -56.5t-54 -187.5h379q-1 244 -181 244zM272 1298l371 207l88 -178 l-377 -178z" />
<glyph unicode="&#xea;" d="M211 861q111 128 307.5 128t304 -115.5t111.5 -338.5l-8 -152h-598q18 -221 221 -221q141 0 299 51l43 -178q-66 -23 -170.5 -40.5t-171.5 -17.5q-449 0 -449 508q0 248 111 376zM526 799q-96 0 -144 -56.5t-54 -187.5h379q-1 244 -181 244zM608 1526l221 -322h-208 l-109 176l-109 -176h-208l221 322h192z" />
<glyph unicode="&#xeb;" d="M211 861q111 128 307.5 128t304 -115.5t111.5 -338.5l-8 -152h-598q18 -221 221 -221q141 0 299 51l43 -178q-66 -23 -170.5 -40.5t-171.5 -17.5q-449 0 -449 508q0 248 111 376zM526 799q-96 0 -144 -56.5t-54 -187.5h379q-1 244 -181 244zM199 1325q0 47 33.5 82 t80.5 35t81 -35t34 -82t-33 -82t-82 -35t-81.5 35t-32.5 82zM594 1325q0 47 32.5 82t82 35t82 -35t32.5 -82t-32.5 -82t-82 -35t-82 35t-32.5 82z" />
<glyph unicode="&#xec;" d="M295 1298l371 207l88 -178l-377 -178zM211 780v189h438v-781h228v-188h-682v188h243v592h-227z" />
<glyph unicode="&#xed;" d="M211 780v189h438v-781h228v-188h-682v188h243v592h-227zM283 1298l370 207l88 -178l-376 -178z" />
<glyph unicode="&#xee;" d="M211 780v189h438v-781h228v-188h-682v188h243v592h-227zM608 1526l221 -322h-208l-109 176l-109 -176h-208l221 322h192z" />
<glyph unicode="&#xef;" d="M219 1325q0 47 34 82t81 35t81 -35t34 -82t-33 -82t-82 -35t-82 35t-33 82zM594 1325q0 47 32.5 82t82 35t82 -35t32.5 -82t-32.5 -82t-82 -35t-82 35t-32.5 82zM211 780v189h438v-781h228v-188h-682v188h243v592h-227z" />
<glyph unicode="&#xf0;" d="M539 1139l-133 -119l-107 102l119 113q-68 45 -135 78l90 153q92 -49 178 -108l127 121l113 -113l-117 -106q137 -129 199.5 -296t62.5 -399q0 -315 -101.5 -453.5t-322.5 -138.5t-323.5 126t-102.5 384t103.5 375t322.5 117q90 0 162 -19q-47 97 -135 183zM313 483 q0 -164 43 -237.5t156 -73.5t156 73.5t43 237.5t-42 236t-157 72t-157 -72t-42 -236z" />
<glyph unicode="&#xf1;" d="M324 973l4 -60q166 76 260 76q166 0 244.5 -97t78.5 -304v-588h-211v582q0 98 -34.5 153.5t-108.5 55.5t-227 -72v-719h-211v973h205zM764 1444l84 -115q-100 -109 -197 -108q-72 0 -149 45q-76 43 -121 43t-113 -64l-92 113q121 117 217 117q68 0 148 -43 q82 -43 123 -43t100 55z" />
<glyph unicode="&#xf2;" d="M512 989q217 0 321.5 -124t104.5 -382t-104.5 -384t-321.5 -126t-321.5 126t-104.5 384t104.5 382t321.5 124zM313 483q0 -164 43 -237.5t156 -73.5t156 73.5t43 237.5t-42 236t-157 72t-157 -72t-42 -236zM371 1505l370 -207l-82 -149l-376 178z" />
<glyph unicode="&#xf3;" d="M512 989q217 0 321.5 -124t104.5 -382t-104.5 -384t-321.5 -126t-321.5 126t-104.5 384t104.5 382t321.5 124zM313 483q0 -164 43 -237.5t156 -73.5t156 73.5t43 237.5t-42 236t-157 72t-157 -72t-42 -236zM289 1298l370 207l89 -178l-377 -178z" />
<glyph unicode="&#xf4;" d="M512 989q217 0 321.5 -124t104.5 -382t-104.5 -384t-321.5 -126t-321.5 126t-104.5 384t104.5 382t321.5 124zM313 483q0 -164 43 -237.5t156 -73.5t156 73.5t43 237.5t-42 236t-157 72t-157 -72t-42 -236zM608 1526l221 -322h-208l-109 176l-109 -176h-208l221 322h192z " />
<glyph unicode="&#xf5;" d="M512 989q217 0 321.5 -124t104.5 -382t-104.5 -384t-321.5 -126t-321.5 126t-104.5 384t104.5 382t321.5 124zM313 483q0 -164 43 -237.5t156 -73.5t156 73.5t43 237.5t-42 236t-157 72t-157 -72t-42 -236zM766 1444l84 -115q-100 -109 -197 -108q-72 0 -149.5 44 t-122.5 44t-111 -64l-92 113q121 117 217 117q68 0 148 -43t121 -43t102 55z" />
<glyph unicode="&#xf6;" d="M512 989q217 0 321.5 -124t104.5 -382t-104.5 -384t-321.5 -126t-321.5 126t-104.5 384t104.5 382t321.5 124zM313 483q0 -164 43 -237.5t156 -73.5t156 73.5t43 237.5t-42 236t-157 72t-157 -72t-42 -236zM199 1325q0 47 33.5 82t80.5 35t81 -35t34 -82t-33 -82t-82 -35 t-81.5 35t-32.5 82zM594 1325q0 47 32.5 82t82 35t82 -35t32.5 -82t-32.5 -82t-82 -35t-82 35t-32.5 82z" />
<glyph unicode="&#xf7;" d="M381 266.5q0 61.5 34 99t91 37.5t91 -37.5t34 -99t-33 -95.5t-92.5 -34t-92 34t-32.5 95.5zM381 886.5q0 61.5 34 99.5t91 38t91 -38t34 -99.5t-33 -95t-92.5 -33.5t-92 33.5t-32.5 95zM113 483v197h798v-197h-798z" />
<glyph unicode="&#xf8;" d="M512 989q102 0 182 -28l62 106l135 -80l-66 -115q113 -121 113 -384t-104.5 -389t-321.5 -126q-96 0 -180 27l-60 -102l-133 79l62 109q-115 123 -115 389t104.5 390t321.5 124zM279 483q0 -123 32 -200l291 514q-41 18 -90 18q-233 0 -233 -332zM687 235.5 q58 88.5 58 225.5t-30 215l-291 -512q39 -16 88 -17q117 0 175 88.5z" />
<glyph unicode="&#xf9;" d="M705 0l-5 59q-6 -2 -37.5 -17t-40 -18.5t-32.5 -15.5q-29 -8 -41 -12l-33 -8q-39 -8 -84 -11q-166 0 -241.5 96.5t-75.5 305.5v594h211v-582q0 -104 28.5 -156.5t100 -52.5t146.5 30t97 50v711h211v-973h-204zM371 1505l370 -207l-82 -149l-376 178z" />
<glyph unicode="&#xfa;" d="M705 0l-5 59q-6 -2 -37.5 -17t-40 -18.5t-32.5 -15.5q-29 -8 -41 -12l-33 -8q-39 -8 -84 -11q-166 0 -241.5 96.5t-75.5 305.5v594h211v-582q0 -104 28.5 -156.5t100 -52.5t146.5 30t97 50v711h211v-973h-204zM301 1298l371 207l88 -178l-377 -178z" />
<glyph unicode="&#xfb;" d="M705 0l-5 59q-6 -2 -37.5 -17t-40 -18.5t-32.5 -15.5q-29 -8 -41 -12l-33 -8q-39 -8 -84 -11q-166 0 -241.5 96.5t-75.5 305.5v594h211v-582q0 -104 28.5 -156.5t100 -52.5t146.5 30t97 50v711h211v-973h-204zM608 1526l221 -322h-208l-109 176l-109 -176h-208l221 322 h192z" />
<glyph unicode="&#xfc;" d="M705 0l-5 59q-6 -2 -37.5 -17t-40 -18.5t-32.5 -15.5q-29 -8 -41 -12l-33 -8q-39 -8 -84 -11q-166 0 -241.5 96.5t-75.5 305.5v594h211v-582q0 -104 28.5 -156.5t100 -52.5t146.5 30t97 50v711h211v-973h-204zM199 1325q0 47 33.5 82t80.5 35t81 -35t34 -82t-33 -82 t-82 -35t-81.5 35t-32.5 82zM594 1325q0 47 32.5 82t82 35t82 -35t32.5 -82t-32.5 -82t-82 -35t-82 35t-32.5 82z" />
<glyph unicode="&#xfd;" d="M59 973h230l235 -791h17l198 791h224l-271 -948q-43 -152 -80 -233t-102.5 -132t-145 -65.5t-225.5 -16.5v191q125 0 184.5 26.5t82.5 83.5l12 31zM283 1298l370 207l88 -178l-376 -178z" />
<glyph unicode="&#xfe;" d="M117 -393v1734h205v-444q137 92 243 92q209 0 306.5 -122t97.5 -378t-120 -384t-339 -128q-74 0 -182 43v-413h-211zM557 793q-94 0 -229 -91v-487q98 -43 178 -43q236 0 235.5 311.5t-184.5 309.5z" />
<glyph unicode="&#xff;" d="M59 973h230l235 -791h17l198 791h224l-271 -948q-43 -152 -80 -233t-102.5 -132t-145 -65.5t-225.5 -16.5v191q125 0 184.5 26.5t82.5 83.5l12 31zM199 1325q0 47 33.5 82t80.5 35t81 -35t34 -82t-33 -82t-82 -35t-81.5 35t-32.5 82zM594 1325q0 47 32.5 82t82 35t82 -35 t32.5 -82t-32.5 -82t-82 -35t-82 35t-32.5 82z" />
<glyph unicode="&#x152;" d="M528 1362h451v-203h-256v-383h201v-184h-201v-410h262v-182h-457q-268 0 -371.5 172t-103.5 520t100.5 509t374.5 161zM262 698q0 -526 215 -526h33v995q-27 2 -33 2q-215 0 -215 -471z" />
<glyph unicode="&#x153;" d="M520 152q-43 -172 -208 -172t-221 122.5t-56 380.5t56 380t212 122q76 0 129 -33.5t70 -68.5l16 -35q45 137 197.5 137t215 -109.5t62.5 -328.5l-6 -135h-371q0 -133 41 -199t86 -66q84 0 166 31l27 10l49 -157q-123 -49 -198.5 -49t-123 17t-71.5 38q-25 25 -43 53 q-25 37 -29 62zM188 483q0 -176 25 -259t89.5 -83t89 83t24.5 259t-23.5 258t-89 82t-90.5 -82t-25 -258zM804.5 779q-22.5 50 -82.5 50t-85 -57t-29 -194h219q0 151 -22.5 201z" />
<glyph unicode="&#x178;" d="M616 580v-580h-208v580l-410 761h244l272 -563l277 563h231zM594 1663q0 47 32.5 82t82 35t82 -35t32.5 -82t-32.5 -82t-82 -35t-82 35t-32.5 82zM199 1663q0 47 33.5 82t80.5 35t81 -35t34 -82t-33 -82t-82 -35t-81.5 35t-32.5 82z" />
<glyph unicode="&#x2dc;" d="M309 408l136 -102q-137 -182 -271 -183q-80 2 -193.5 69.5t-140.5 67.5q-76 0 -163 -108l-121 106q143 184 282 185q82 0 187 -66q106 -66 143 -65.5t67.5 23t73.5 73.5z" />
<glyph unicode="&#x2000;" horiz-adv-x="950" />
<glyph unicode="&#x2001;" horiz-adv-x="1902" />
<glyph unicode="&#x2002;" horiz-adv-x="950" />
<glyph unicode="&#x2003;" horiz-adv-x="1902" />
<glyph unicode="&#x2004;" horiz-adv-x="632" />
<glyph unicode="&#x2005;" horiz-adv-x="475" />
<glyph unicode="&#x2006;" horiz-adv-x="315" />
<glyph unicode="&#x2007;" horiz-adv-x="315" />
<glyph unicode="&#x2008;" horiz-adv-x="237" />
<glyph unicode="&#x2009;" horiz-adv-x="378" />
<glyph unicode="&#x200a;" horiz-adv-x="104" />
<glyph unicode="&#x2010;" d="M225 446v199h576v-199h-576z" />
<glyph unicode="&#x2011;" d="M225 446v199h576v-199h-576z" />
<glyph unicode="&#x2012;" d="M225 446v199h576v-199h-576z" />
<glyph unicode="&#x2013;" d="M143 446v199h736v-199h-736z" />
<glyph unicode="&#x2014;" d="M2 446v199h1022v-199h-1022z" />
<glyph unicode="&#x2018;" d="M676 1343l-119 -423l-213 57l164 412z" />
<glyph unicode="&#x2019;" d="M346 977l119 424l213 -58l-164 -411z" />
<glyph unicode="&#x201c;" d="M797 1331l-119 -424l-213 60l164 411zM504 1370l-119 -424l-213 58l164 411z" />
<glyph unicode="&#x201d;" d="M199 987l118 424l213 -59l-163 -412zM492 948l118 424l213 -57l-164 -412z" />
<glyph unicode="&#x2022;" d="M629 735v-246h-238v246h238z" />
<glyph unicode="&#x2026;" d="M106 0v297h183v-297h-183zM420 0v297h182v-297h-182zM735 0v297h183v-297h-183z" />
<glyph unicode="&#x202f;" horiz-adv-x="378" />
<glyph unicode="&#x2039;" d="M270 547l471 336v-234l-299 -184l299 -189v-233l-471 340v164z" />
<glyph unicode="&#x203a;" d="M270 883l471 -336v-164l-471 -340v233l299 189l-299 184v234z" />
<glyph unicode="&#x2044;" d="M686 1362h193l-547 -1362h-193z" />
<glyph unicode="&#x205f;" horiz-adv-x="475" />
<glyph unicode="&#x20ac;" d="M295 651l2 -47h448v-162h-426q29 -137 93.5 -199.5t196.5 -62.5t292 49l51 -190q-68 -23 -179 -40t-189 -17q-203 -6 -327 101t-159 359h-98v162h84v113h-84v162h98q33 242 150 362.5t338 120.5q170 0 338 -57l-47 -175q-154 47 -282 47.5t-194.5 -69.5t-91.5 -229h436 v-162h-450v-66z" />
<glyph unicode="&#x2122;" d="M29 1085v123h368v-123h-110v-485h-140v485h-118zM578 932l8 -332h-127v608h139l102 -290h27l109 290h139v-608h-125l8 332h-14l-74 -193h-115l-63 193h-14z" />
<glyph unicode="&#xe000;" horiz-adv-x="975" d="M0 975h975v-975h-975v975z" />
<glyph unicode="&#xfb01;" d="M823 1159q-211 41 -313 41t-147.5 -44t-45.5 -183h611v-973h-203v788h-410v-788h-202v788h-101v185h103q0 209 85 315.5t271 104.5q129 0 320 -37l63 -13z" />
<glyph unicode="&#xfb02;" d="M676 973v-185h-275v-788h-204v788h-195v185h195q0 225 79.5 321.5t274.5 98.5q121 4 354 -33l76 -10v-1350h-203v1182l-41 6q-111 12 -186.5 11t-112.5 -45t-37 -181h275z" />
<glyph unicode="&#xfb03;" horiz-adv-x="2048" d="M1655 1161q-219 39 -312.5 39t-131 -43t-37.5 -184h610v-973h-203v788h-407v-788h-205v788h-318v-788h-205v788h-239v185h239q0 201 98.5 310.5t268.5 109.5q115 0 287 -50q72 49 157 50q141 0 363 -41l70 -15zM993 1184q-92 27 -166.5 26.5t-126 -49.5t-49.5 -188h318 q-1 121 24 211z" />
<glyph unicode="&#xfb04;" horiz-adv-x="2048" d="M1448 973v-185h-274v-788h-205v788h-338v-788h-205v788h-219v185h219q0 199 99.5 309.5t267.5 110.5q102 0 307 -56q80 53 231 56q156 0 375 -33l78 -10v-1350h-203v1182q-147 18 -237.5 18t-130 -42t-39.5 -185h274zM969 973q0 127 22 209q-115 29 -166 28 q-92 0 -143 -49t-51 -188h338z" />
</font>
</defs>
</svg>
